PathFileType	4	(X/Y/Z)	s05c0101.trc
DataRate	CameraRate	NumFrames	NumMarkers	Units	OrigDataRate	OrigDataStartFrame	OrigNumFrames
200	200	4	50	mm	200	1500	2000
Frame#	Time	racr			lacr			c7			jug			rlel			rdr			llel			ldr			s2			lic			ric			lasi			rasi			rpsi			lpsi			rgt			lgt			rth1			rth2			rth3			rth4			rlfc			rmfc			rsh1			rsh2			rsh3			rsh4			rlmal			rmmal			rcal			rtoe			rmt5			lth1			lth2			lth4			lth3			llfc			lmfc			lsh1			lsh2			lsh3			lsh4			llmal			lmmal			lcal			ltoe			lmt5			SBIKE			LBIKE			RBIKE			
		X1	Y1	Z1	X2	Y2	Z2	X3	Y3	Z3	X4	Y4	Z4	X5	Y5	Z5	X6	Y6	Z6	X7	Y7	Z7	X8	Y8	Z8	X9	Y9	Z9	X10	Y10	Z10	X11	Y11	Z11	X12	Y12	Z12	X13	Y13	Z13	X14	Y14	Z14	X15	Y15	Z15	X16	Y16	Z16	X17	Y17	Z17	X18	Y18	Z18	X19	Y19	Z19	X20	Y20	Z20	X21	Y21	Z21	X22	Y22	Z22	X23	Y23	Z23	X24	Y24	Z24	X25	Y25	Z25	X26	Y26	Z26	X27	Y27	Z27	X28	Y28	Z28	X29	Y29	Z29	X30	Y30	Z30	X31	Y31	Z31	X32	Y32	Z32	X33	Y33	Z33	X34	Y34	Z34	X35	Y35	Z35	X36	Y36	Z36	X37	Y37	Z37	X38	Y38	Z38	X39	Y39	Z39	X40	Y40	Z40	X41	Y41	Z41	X42	Y42	Z42	X43	Y43	Z43	X44	Y44	Z44	X45	Y45	Z45	X46	Y46	Z46	X47	Y47	Z47	X48	Y48	Z48	X49	Y49	Z49	X50	Y50	Z50	
1500	7.5000	456.076056	1329.484663	-188.952460	452.511443	1308.214578	-426.302724	432.202303	1385.031152	-313.717990	377.002208	1236.309083	-290.090332	507.579124	1103.968645	-29.840636	688.509686	935.781854	-97.075519	475.905110	1064.633276	-592.980934	677.865586	920.638085	-492.225936	-133.737486	1165.940668	-280.600736	2.826167	1180.589064	-428.473229	9.964388	1207.112466	-144.103999	54.240028	1131.464889	-396.051739	60.160285	1149.457617	-169.191151	-102.596506	1221.473711	-245.073718	-105.298992	1217.209195	-330.091035	-17.218561	1066.820903	-111.412690	-47.033338	1075.273151	-449.318872	76.101000	981.029296	-98.769386	151.240013	933.389007	-101.565432	190.822237	855.133259	-109.175667	177.073212	958.312180	-112.098086	294.205837	747.739777	-135.905499	275.588256	738.739727	-242.641163	254.485228	645.175162	-105.280004	269.576115	558.182607	-113.519773	242.164666	476.721304	-112.798602	297.185908	557.492175	-140.482695	233.045663	341.640431	-118.282564	242.459992	361.816024	-200.169674	165.130391	303.448104	-160.434045	462.057634	304.704925	-158.423250	362.999724	274.291044	-92.652839	71.314967	995.081820	-462.968001	155.732354	977.634375	-461.459921	173.129442	1007.848593	-446.414128	221.984969	915.997592	-463.457122	329.693542	814.602096	-430.709489	312.045546	801.758785	-323.634049	238.523492	728.767681	-456.906042	194.918566	654.380217	-442.439932	118.320063	609.574790	-442.985114	217.844092	635.102530	-418.284010	39.277286	526.885622	-437.727337	75.685575	528.023173	-363.063459	-26.139442	544.025385	-392.990008	144.540504	303.816384	-403.681725	54.955283	371.359542	-463.082969	-265.170023	895.439757	-285.683261	-53.381638	78.997764	-475.112738	-53.426172	79.049596	-77.451921	
1501	7.5050	457.168177	1329.496808	-190.389724	452.345255	1308.077202	-427.728617	432.795297	1385.067169	-314.927678	377.351143	1236.486611	-291.025079	508.897560	1104.488490	-30.440062	689.077084	934.783851	-97.661887	475.363749	1063.928957	-593.795654	677.975315	920.745623	-492.095276	-132.545529	1166.512291	-277.850152	2.268013	1181.903310	-426.543822	12.034529	1206.954150	-142.217380	54.375832	1133.104188	-394.749359	61.678689	1148.975998	-167.884378	-101.232626	1221.904865	-242.269924	-104.798805	1218.019194	-327.130869	-16.522093	1065.474244	-110.311707	-46.789774	1077.756947	-447.964893	75.092406	977.868401	-97.378170	148.666902	928.024941	-100.157885	185.851284	848.596642	-107.965037	175.255451	952.260979	-110.453597	286.428419	738.689348	-134.676245	266.992933	729.244474	-241.159738	247.257226	636.076775	-103.696545	263.256386	549.271554	-111.939860	236.892010	467.413765	-111.460903	291.014408	548.926737	-138.678152	230.281534	332.085370	-117.783892	239.598925	352.343194	-199.558684	163.056362	293.366104	-161.386976	459.352601	293.572080	-158.499089	360.063386	263.941170	-92.571286	72.169494	999.308923	-462.872924	156.882460	983.652609	-461.652856	173.688869	1014.133993	-446.383918	224.396083	923.500963	-464.424129	334.366031	823.842683	-432.354486	316.986769	810.754984	-325.193651	243.021011	738.305667	-457.832046	199.057271	664.270248	-443.230256	122.173635	619.839337	-443.432199	222.115781	644.890726	-419.258176	42.509353	537.394046	-437.802856	78.969278	538.561791	-363.170782	-23.526048	554.272815	-392.582135	147.918425	314.488316	-403.684572	58.257191	381.877503	-463.053873	-265.405497	895.520640	-285.299058	-53.339582	79.080740	-475.101483	-53.393802	79.074089	-77.442292	
1502	7.5100	458.171352	1329.685893	-191.610209	452.278125	1307.953124	-429.145112	433.394119	1385.171376	-316.040474	377.720258	1236.743768	-291.765044	510.410973	1105.041508	-31.223377	689.800494	934.372082	-97.885896	474.847169	1063.216040	-594.080172	677.849527	921.112261	-491.923854	-131.195147	1167.240214	-275.065134	1.727762	1183.500181	-424.712685	14.241879	1206.870484	-140.486607	54.405973	1135.020364	-393.435117	63.339805	1148.752170	-166.569275	-99.828955	1222.427466	-239.555484	-104.224238	1219.152829	-324.370211	-15.829062	1064.264790	-109.311769	-46.473662	1080.482275	-446.695281	73.859315	974.994292	-96.084222	145.591586	922.563124	-99.368208	180.673512	842.147969	-106.629041	173.168439	946.058063	-109.684953	278.311364	729.865445	-133.369277	258.313142	720.132867	-239.473394	239.565632	627.218398	-101.899597	256.397902	540.643245	-110.337413	230.891951	458.429059	-110.207443	284.581843	540.662559	-137.065952	227.114116	323.007650	-117.319308	236.152589	343.291925	-198.996413	158.828087	285.830541	-160.056603	455.933703	282.737491	-158.543949	356.553704	253.778027	-92.482738	72.941691	1003.913442	-462.603452	157.986593	990.044313	-461.815847	174.206539	1020.772217	-446.279673	226.731945	931.318822	-465.201686	338.851197	833.405201	-434.117930	322.018720	819.872463	-326.848688	247.415337	748.125353	-458.887299	203.230005	674.329946	-444.162687	126.096851	630.123253	-443.887609	226.225598	654.473847	-420.393532	46.002639	547.711737	-437.938780	82.354389	549.026379	-363.262480	-20.413287	564.416171	-392.628827	152.014454	325.034696	-403.682600	62.176185	392.224552	-463.028438	-265.846358	895.628105	-285.088790	-53.321574	79.154196	-475.081253	-53.366890	79.101256	-77.424730	
1503	7.5150	459.192891	1329.965469	-192.767117	453.101218	1308.675858	-431.579231	433.936787	1385.314279	-317.092781	379.370912	1236.473145	-292.873831	512.037846	1105.683614	-31.847335	690.907311	934.324086	-97.928035	474.514118	1062.694746	-594.316579	678.265634	921.061557	-492.114121	-131.222816	1167.819931	-273.088013	1.182388	1185.280014	-422.964002	16.489896	1206.635222	-138.502574	54.342562	1137.058669	-392.186607	65.085302	1148.437510	-165.648387	-98.441346	1222.989692	-236.471947	-104.275577	1220.455300	-322.354768	-15.185692	1063.286808	-108.238949	-46.159215	1083.440580	-445.551293	72.266914	972.559839	-93.906208	142.606269	917.517884	-97.740598	174.727770	835.934986	-105.391183	170.694544	940.049312	-108.396003	269.654374	721.465338	-131.999492	249.463075	711.604746	-237.863408	231.793014	618.674132	-100.100682	249.400960	532.264744	-108.871801	224.637688	449.915597	-108.954615	277.565431	532.712773	-135.433617	223.336845	314.475587	-116.761185	232.355360	334.617520	-198.423823	154.834536	277.850620	-159.542344	452.011064	271.980428	-158.600564	352.492246	243.991949	-92.415129	73.693399	1008.920531	-462.184181	159.014932	996.792143	-461.904325	174.665467	1027.702468	-446.102078	228.883006	939.560063	-465.970668	343.063623	843.228878	-435.962890	327.002243	829.064953	-328.418223	251.685096	758.166510	-459.909331	207.413549	684.475577	-445.236651	130.106050	640.512237	-444.381199	230.553527	664.449529	-421.731918	49.743241	557.671534	-438.078400	86.432537	559.274560	-363.579192	-16.462687	574.195608	-392.531541	156.744531	335.540758	-403.791902	66.603849	402.360551	-463.062646	-265.896703	895.620388	-284.566575	-53.296594	79.209648	-475.082408	-53.351613	79.104536	-77.422879	
